<?xml version="1.0" encoding="utf-8"?>
<!-- Generator: Adobe Illustrator 25.0.1, SVG Export Plug-In . SVG Version: 6.00 Build 0)  -->
<svg version="1.1" id="Layer_1" xmlns="http://www.w3.org/2000/svg" xmlns:xlink="http://www.w3.org/1999/xlink" x="0px" y="0px"
	 viewBox="0 0 941.48 152.79" style="enable-background:new 0 0 941.48 152.79;" xml:space="preserve">
<style type="text/css">
	.st0{fill:none;stroke:#000000;stroke-width:24;stroke-miterlimit:10;}
	.st1{fill:none;stroke:#000000;stroke-width:18;stroke-miterlimit:10;}
	.st2{fill:none;stroke:#000000;stroke-width:21;stroke-miterlimit:10;}
	.st3{fill:none;stroke:#EF4553;stroke-width:32;stroke-miterlimit:10;}
	.st4{stroke:#000000;stroke-width:6;stroke-miterlimit:10;}
	.st5{stroke:#000000;stroke-width:0.25;stroke-miterlimit:10;}
	.st6{fill:#261E15;}
	.st7{fill:#EF4553;}
	.st8{fill:#00ADBF;}
	.st9{fill:#0E6973;}
	.st10{fill:#EF4445;}
	.st11{fill:#FFFFFF;}
	.st12{fill:url(#SVGID_1_);}
	.st13{fill:none;stroke:#FFFFFF;stroke-width:4;stroke-miterlimit:10;}
	.st14{clip-path:url(#SVGID_3_);}
	.st15{fill:url(#SVGID_4_);}
	.st16{fill:url(#SVGID_5_);}
</style>
<g>
	<path class="st7" d="M102.17,152.79c-2.65,0-5.34-0.4-8-1.26l-75.92-24.32c-13.8-4.42-21.42-19.24-17-33.04l24.32-75.92
		C30,4.46,44.82-3.17,58.62,1.26l75.92,24.32c13.8,4.42,21.42,19.24,17,33.04l-24.32,75.92
		C123.64,145.67,113.29,152.79,102.17,152.79z M50.61,17.98c-3.51,0-6.78,2.25-7.91,5.77L18.37,99.66
		c-1.4,4.36,1.01,9.04,5.37,10.43l75.92,24.32c4.36,1.4,9.04-1.01,10.43-5.37l24.32-75.92c1.4-4.36-1.01-9.04-5.37-10.43
		L53.13,18.37C52.29,18.11,51.44,17.98,50.61,17.98z"/>
	<g>
		<path class="st6" d="M441.53,132.5h-63.68c-3.13,0-5.67-2.54-5.67-5.67V91.11c0-3.13,2.54-5.67,5.67-5.67h55.27
			c4.98,0,9.04-4.06,9.04-9.04c0-4.98-4.06-9.04-9.04-9.04h-55.27c-3.13,0-5.67-2.54-5.67-5.67V25.96c0-3.13,2.54-5.67,5.67-5.67
			h61.58c4.98,0,9.04-4.06,9.04-9.04s-4.06-9.04-9.04-9.04h-79.65c-4.98,0-9.04,4.06-9.04,9.04v130.3c0,4.98,4.06,9.04,9.04,9.04
			h81.75c4.98,0,9.04-4.06,9.04-9.04S446.51,132.5,441.53,132.5z"/>
		<path class="st6" d="M538.6,3.06c-7.45-0.85-10.97-0.85-18.68-0.85h-36.78c-4.98,0-9.04,4.06-9.04,9.04v130.3
			c0,4.98,4.06,9.04,9.04,9.04h35.73c7.71,0,11.23,0,18.7-0.85c17.43-2.18,32.26-10.08,42.91-22.84
			c11.12-13.33,16.99-31.38,16.99-52.17c0-21.21-5.55-38.28-16.5-50.76C570.92,12.49,556.27,5.27,538.6,3.06z M501.21,132.5
			c-3.13,0-5.67-2.54-5.67-5.67V25.96c0-3.13,2.54-5.67,5.67-5.67h17.65c7.04,0,12.68,0.17,17.38,1.03
			c24.57,3.99,38.09,22.95,38.09,53.4c0,32.03-14.27,52.72-39.18,56.77c-4.67,0.85-10.32,1.02-17.35,1.02H501.21z"/>
		<path class="st6" d="M633.82,2.21c-5.91,0-10.72,4.81-10.72,10.72v126.93c0,5.91,4.81,10.72,10.72,10.72s10.72-4.81,10.72-10.72
			V12.93C644.54,7.02,639.73,2.21,633.82,2.21z"/>
		<path class="st6" d="M785.99,2.21h-2.96c-4.98,0-9.04,4.06-9.04,9.04l3.16,76.77c0,7.72,0.04,16.21,0.13,24.55
			c0.03,3.28-2.27,5.04-4.26,5.54c-1.99,0.51-4.86,0.08-6.39-2.78L711.57,6.97c-1.58-2.94-4.63-4.77-7.97-4.77h-15.98
			c-4.98,0-9.04,4.06-9.04,9.04v130.3c0,4.98,4.06,9.04,9.04,9.04h3.36c4.98,0,9.04-4.06,9.04-9.04l-3.16-78.35
			c0-7.73-0.04-16.22-0.13-24.55c-0.03-3.28,2.27-5.04,4.26-5.54c1.99-0.51,4.86-0.08,6.39,2.77l55.04,109.9l0.02,0.04
			c1.58,2.94,4.63,4.77,7.97,4.77h15.96c2.42,0,4.69-0.94,6.4-2.66s2.65-3.99,2.64-6.41l-0.38-130.3
			C795.02,6.25,790.96,2.21,785.99,2.21z"/>
		<path class="st6" d="M940.97,138.6L896.03,8.3c-1.26-3.64-4.69-6.09-8.55-6.09h-13.96c-3.8,0-7.22,2.4-8.51,5.98l-46.83,130.3
			c-1.01,2.81-0.6,5.82,1.11,8.26c1.72,2.44,4.41,3.84,7.4,3.84h3.57c3.9,0,7.35-2.49,8.58-6.19l13.68-41.2
			c0.77-2.32,2.93-3.88,5.38-3.88h42.78c2.44,0,4.6,1.55,5.37,3.86l13.86,41.25c1.24,3.68,4.68,6.16,8.57,6.16h3.94
			c2.96,0,5.64-1.38,7.36-3.79C941.51,144.38,941.94,141.39,940.97,138.6z M862.62,73.69l0.03-0.08l11.91-50.07
			c1-2.78,3.43-3.76,5.39-3.73c1.95,0.02,4.37,1.04,5.31,3.85l11.11,49.99l0.04,0.15c0.57,1.75,0.27,3.6-0.81,5.08
			c-1.08,1.49-2.75,2.34-4.59,2.34h-23.04c-1.86,0-3.54-0.87-4.62-2.38C862.28,77.33,862.01,75.45,862.62,73.69z"/>
		<path class="st6" d="M306.82,2.21h-15.09c-4.27,0-8.04,2.73-9.38,6.79L249.3,109.44c-1.14,3.46-4.21,4.57-6.5,4.46l-0.08,0
			l-0.08,0c-2.29,0.11-5.36-1-6.5-4.46L203.09,9c-1.34-4.06-5.11-6.79-9.38-6.79h-15.09c-5.45,0-9.88,4.43-9.88,9.88v128.63
			c0,5.45,4.43,9.88,9.88,9.88h1.69c5.45,0,9.88-4.43,9.88-9.88v-0.06L182.94,39.8v-1.26c0-4.07,2.93-6,5.44-6.42
			c2.51-0.42,5.9,0.46,7.22,4.31c0.43,1.26,0.86,2.5,1.28,3.73l30.98,103.68l0.02,0.06c1.37,3.99,5.12,6.67,9.34,6.67h11
			c4.22,0,7.97-2.68,9.34-6.67l31-103.75c0.42-1.23,0.85-2.48,1.28-3.73c1.32-3.85,4.72-4.72,7.22-4.31
			c2.51,0.42,5.44,2.35,5.44,6.42v1.26l-7.25,100.79l0,0.12c0,5.45,4.43,9.88,9.88,9.88h1.69c5.45,0,9.88-4.43,9.88-9.88V12.08
			C316.7,6.64,312.27,2.21,306.82,2.21z"/>
	</g>
</g>
<g>
	<defs>
		<rect id="SVGID_2_" x="1132.64" y="450.12" width="3186.7" height="796.68"/>
	</defs>
	<clipPath id="SVGID_1_">
		<use xlink:href="#SVGID_2_"  style="overflow:visible;"/>
	</clipPath>
	<g style="clip-path:url(#SVGID_1_);">
		<g>
			
				<linearGradient id="SVGID_3_" gradientUnits="userSpaceOnUse" x1="503.029" y1="655.3277" x2="2612.8638" y2="655.3277" gradientTransform="matrix(0.9984 -0.057 0.057 0.9984 27.3435 -57.9711)">
				<stop  offset="0" style="stop-color:#EF4553"/>
				<stop  offset="1" style="stop-color:#00ADBF"/>
			</linearGradient>
			<polygon style="fill:url(#SVGID_3_);" points="1742.51,2079.64 633.7,1737.79 1497.7,-1064.63 2606.51,-722.78 			"/>
		</g>
	</g>
</g>
</svg>
