<?xml version="1.0" encoding="utf-8"?>
<!-- Generator: Adobe Illustrator 25.0.1, SVG Export Plug-In . SVG Version: 6.00 Build 0)  -->
<svg version="1.1" id="Layer_1" xmlns="http://www.w3.org/2000/svg" xmlns:xlink="http://www.w3.org/1999/xlink" x="0px" y="0px"
	 viewBox="0 0 1375.59 264.13" style="enable-background:new 0 0 1375.59 264.13;" xml:space="preserve">
<style type="text/css">
	.st0{fill:none;stroke:#000000;stroke-width:24;stroke-miterlimit:10;}
	.st1{fill:none;stroke:#000000;stroke-width:18;stroke-miterlimit:10;}
	.st2{fill:none;stroke:#000000;stroke-width:21;stroke-miterlimit:10;}
	.st3{fill:none;stroke:#EF4553;stroke-width:32;stroke-miterlimit:10;}
	.st4{stroke:#000000;stroke-width:6;stroke-miterlimit:10;}
	.st5{stroke:#000000;stroke-width:0.25;stroke-miterlimit:10;}
	.st6{fill:#261E15;}
	.st7{fill:#EF4553;}
	.st8{fill:#00ADBF;}
	.st9{fill:#0E6973;}
	.st10{fill:#EF4445;}
	.st11{fill:#FFFFFF;}
	.st12{fill:url(#SVGID_1_);}
	.st13{fill:none;stroke:#FFFFFF;stroke-width:4;stroke-miterlimit:10;}
	.st14{clip-path:url(#SVGID_3_);}
	.st15{fill:url(#SVGID_4_);}
	.st16{fill:url(#SVGID_5_);}
</style>
<g>
	<path class="st6" d="M485.6,231.95H372.25c-5.57,0-10.09-4.53-10.09-10.09v-63.6c0-5.57,4.53-10.09,10.09-10.09h98.39
		c8.87,0,16.09-7.22,16.09-16.09c0-8.87-7.22-16.09-16.09-16.09h-98.39c-5.57,0-10.09-4.53-10.09-10.09v-63.6
		c0-5.57,4.53-10.09,10.09-10.09h109.61c8.87,0,16.09-7.22,16.09-16.09S490.73,0,481.86,0H340.07c-8.87,0-16.09,7.22-16.09,16.09
		v231.95c0,8.87,7.22,16.09,16.09,16.09H485.6c8.87,0,16.09-7.22,16.09-16.09S494.47,231.95,485.6,231.95z"/>
	<path class="st6" d="M658.4,1.52C645.14,0,638.87,0,625.14,0h-65.47c-8.87,0-16.09,7.22-16.09,16.09v231.95
		c0,8.87,7.22,16.09,16.09,16.09h63.6c13.73,0,20,0,33.29-1.52c31.02-3.88,57.43-17.94,76.38-40.66
		c19.79-23.74,30.25-55.85,30.25-92.88c0-37.75-9.88-68.15-29.36-90.36C715.93,18.31,689.86,5.45,658.4,1.52z M591.85,231.95
		c-5.57,0-10.09-4.53-10.09-10.09V42.28c0-5.57,4.53-10.09,10.09-10.09h31.42c12.53,0,22.57,0.31,30.94,1.83
		c43.73,7.1,67.81,40.86,67.81,95.06c0,57.02-25.4,93.85-69.74,101.05c-8.32,1.51-18.36,1.82-30.89,1.82H591.85z"/>
	<path class="st6" d="M827.91,0c-10.52,0-19.09,8.56-19.09,19.09v225.96c0,10.52,8.56,19.09,19.09,19.09S847,255.57,847,245.05
		V19.09C847,8.56,838.43,0,827.91,0z"/>
	<path class="st6" d="M1098.8,0h-5.28c-8.87,0-16.09,7.22-16.09,16.09l5.62,136.65c0,13.75,0.08,28.86,0.23,43.7
		c0.06,5.83-4.05,8.96-7.58,9.87c-3.54,0.91-8.65,0.14-11.38-4.95L966.31,8.49C963.51,3.25,958.07,0,952.13,0h-28.45
		c-8.87,0-16.09,7.22-16.09,16.09v231.95c0,8.87,7.22,16.09,16.09,16.09h5.99c8.87,0,16.09-7.22,16.09-16.09l-5.62-139.47
		c0-13.76-0.08-28.87-0.23-43.7c-0.06-5.83,4.05-8.96,7.58-9.87c3.54-0.91,8.65-0.14,11.37,4.93l97.98,195.64l0.04,0.07
		c2.81,5.23,8.24,8.49,14.18,8.49h28.42c4.31,0,8.35-1.68,11.4-4.73s4.71-7.1,4.7-11.41l-0.67-231.95
		C1114.87,7.2,1107.65,0,1098.8,0z"/>
	<path class="st6" d="M1374.69,242.79l-80-231.95C1292.45,4.36,1286.33,0,1279.47,0h-24.86c-6.77,0-12.86,4.28-15.15,10.65
		L1156.1,242.6c-1.8,5-1.07,10.36,1.98,14.7c3.06,4.34,7.85,6.84,13.16,6.84h6.35c6.95,0,13.09-4.43,15.27-11.02l24.35-73.35
		c1.37-4.14,5.22-6.91,9.58-6.91h76.16c4.34,0,8.19,2.76,9.57,6.88l24.68,73.44c2.2,6.56,8.33,10.97,15.25,10.97h7.01
		c5.27,0,10.05-2.46,13.1-6.75C1375.64,253.09,1376.41,247.77,1374.69,242.79z M1235.21,127.26l0.05-0.14l21.2-89.13
		c1.79-4.95,6.11-6.7,9.59-6.65c3.48,0.04,7.77,1.86,9.45,6.85l19.78,88.99l0.08,0.28c1.01,3.11,0.49,6.41-1.44,9.05
		c-1.92,2.64-4.9,4.16-8.17,4.16h-41.01c-3.31,0-6.31-1.55-8.23-4.24S1234.12,130.38,1235.21,127.26z"/>
	<path class="st6" d="M245.81,0h-26.87c-7.61,0-14.32,4.86-16.7,12.09L143.41,190.9c-2.03,6.17-7.5,8.13-11.57,7.94l-0.14-0.01
		l-0.14,0.01c-4.07,0.19-9.55-1.77-11.57-7.94L61.15,12.09C58.77,4.86,52.06,0,44.45,0H17.58C7.89,0,0,7.89,0,17.58v228.97
		c0,9.69,7.89,17.58,17.58,17.58h3.01c9.69,0,17.58-7.89,17.58-17.58v-0.11L25.27,66.92v-2.24c0-7.24,5.21-10.68,9.68-11.42
		c4.46-0.74,10.51,0.82,12.86,7.67c0.77,2.23,1.53,4.45,2.29,6.64l55.15,184.57l0.04,0.11c2.44,7.11,9.12,11.88,16.63,11.88h19.57
		c7.51,0,14.19-4.77,16.63-11.88L213.3,67.57c0.76-2.19,1.52-4.41,2.28-6.64c2.35-6.85,8.4-8.41,12.86-7.67
		c4.46,0.74,9.68,4.18,9.68,11.42v2.24l-12.9,179.42l-0.01,0.22c0,9.69,7.89,17.58,17.58,17.58h3.01c9.69,0,17.58-7.89,17.58-17.58
		V17.58C263.39,7.89,255.5,0,245.81,0z"/>
</g>
</svg>
