<?xml version="1.0" encoding="utf-8"?>
<!-- Generator: Adobe Illustrator 25.0.1, SVG Export Plug-In . SVG Version: 6.00 Build 0)  -->
<svg version="1.1" id="Layer_1" xmlns="http://www.w3.org/2000/svg" xmlns:xlink="http://www.w3.org/1999/xlink" x="0px" y="0px"
	 viewBox="0 0 272.01 271.99" style="enable-background:new 0 0 272.01 271.99;" xml:space="preserve">
<style type="text/css">
	.st0{fill:none;stroke:#000000;stroke-width:24;stroke-miterlimit:10;}
	.st1{fill:none;stroke:#000000;stroke-width:18;stroke-miterlimit:10;}
	.st2{fill:none;stroke:#000000;stroke-width:21;stroke-miterlimit:10;}
	.st3{fill:none;stroke:#EF4553;stroke-width:32;stroke-miterlimit:10;}
	.st4{stroke:#000000;stroke-width:6;stroke-miterlimit:10;}
	.st5{stroke:#000000;stroke-width:0.25;stroke-miterlimit:10;}
	.st6{fill:#261E15;}
	.st7{fill:#EF4553;}
	.st8{fill:#00ADBF;}
	.st9{fill:#0E6973;}
	.st10{fill:#EF4445;}
	.st11{fill:#FFFFFF;}
	.st12{fill:url(#SVGID_1_);}
	.st13{fill:none;stroke:#FFFFFF;stroke-width:4;stroke-miterlimit:10;}
	.st14{clip-path:url(#SVGID_3_);}
	.st15{fill:url(#SVGID_4_);}
	.st16{fill:url(#SVGID_5_);}
</style>
<path class="st7" d="M181.88,271.99c-4.72,0-9.51-0.72-14.24-2.23h0L32.5,226.45C7.94,218.59-5.63,192.2,2.23,167.64L45.54,32.5
	C53.41,7.94,79.79-5.64,104.35,2.24l135.14,43.3c11.9,3.81,21.6,12.03,27.31,23.14c5.72,11.11,6.77,23.78,2.95,35.67l-43.3,135.14
	C220.1,259.32,201.67,271.99,181.88,271.99z M177.41,239.28c7.75,2.48,16.09-1.8,18.57-9.56l43.3-135.14
	c1.2-3.76,0.87-7.76-0.93-11.27c-1.81-3.51-4.87-6.1-8.63-7.31L94.58,32.71c-7.76-2.48-16.09,1.8-18.57,9.56l-43.3,135.14
	c-2.48,7.76,1.8,16.09,9.56,18.57L177.41,239.28L177.41,239.28z"/>
</svg>
