<svg xmlns="http://www.w3.org/2000/svg" width="43.654" height="42.998" viewBox="0 0 43.654 42.998"><path d="M21.827,0a21.824,21.824,0,0,0-5.292,43,2.947,2.947,0,0,1-.163-1.037V38.25H13.642A3.728,3.728,0,0,1,10.2,36.394c-.71-1.31-.819-3.329-2.619-4.585-.546-.437-.11-.873.49-.819a5.725,5.725,0,0,1,2.946,2.237,2.787,2.787,0,0,0,2.892,1.419,22,22,0,0,0,3.056-.219,6.765,6.765,0,0,1,2.892-3.546c-7.312-.873-10.8-4.475-10.8-9.387A9.007,9.007,0,0,1,11.513,15.6c-.49-1.692-1.146-5.185.219-6.548a7.745,7.745,0,0,1,5.729,2.673,16.8,16.8,0,0,1,5.292-.873,16.541,16.541,0,0,1,5.292.873,7.742,7.742,0,0,1,5.729-2.673c1.31,1.31.71,4.856.163,6.548a8.837,8.837,0,0,1,2.4,5.894c0,4.912-3.438,8.513-10.694,9.277,2.019,1.037,3.438,3.983,3.438,6.165v4.971c0,.163-.054.327-.054.49A21.808,21.808,0,0,0,21.827,0Z" fill="#00adbf"/></svg>