<svg xmlns="http://www.w3.org/2000/svg" width="52.821" height="42.914" viewBox="0 0 52.821 42.914"><g transform="translate(0)"><path d="M62.82,106.977a21.689,21.689,0,0,1-6.225,1.709,10.877,10.877,0,0,0,4.765-5.993,21.761,21.761,0,0,1-6.883,2.63,10.841,10.841,0,0,0-18.746,7.411,10.933,10.933,0,0,0,.28,2.469,30.761,30.761,0,0,1-22.335-11.324,10.847,10.847,0,0,0,3.358,14.466,10.818,10.818,0,0,1-4.91-1.353v.135a10.838,10.838,0,0,0,8.694,10.623,10.841,10.841,0,0,1-2.857.377,11.017,11.017,0,0,1-2.037-.194,10.841,10.841,0,0,0,10.122,7.524A21.9,21.9,0,0,1,10,139.947a30.642,30.642,0,0,0,16.611,4.867c19.932,0,30.83-16.514,30.83-30.835,0-.469-.011-.938-.032-1.4a21.912,21.912,0,0,0,5.411-5.6Z" transform="translate(-10 -101.9)" fill="#00adbf"/></g></svg>