<svg xmlns="http://www.w3.org/2000/svg" width="1414.669" height="1414.648" viewBox="0 0 1414.669 1414.648"><g transform="translate(0.019 0.018)"><path d="M945.3,1412.63a241.5,241.5,0,0,1-73.85-11.59L170.57,1176.46C43.2,1135.65-27.22,998.82,13.59,871.46L238.17,170.58C278.98,43.2,415.81-27.23,543.18,13.6l700.88,224.58c127.37,40.81,197.79,177.64,156.98,305.01l-224.58,700.88C1143.5,1346.91,1047.94,1412.63,945.3,1412.63ZM469.21,167.98a76.742,76.742,0,0,0-73,53.23L171.64,922.1a76.688,76.688,0,0,0,49.57,96.32L922.09,1243a76.691,76.691,0,0,0,96.32-49.57l224.58-700.88a76.688,76.688,0,0,0-49.57-96.32L492.53,171.64A76.307,76.307,0,0,0,469.21,167.98Z" fill="#fff" stroke="#ef4352" stroke-miterlimit="10" stroke-width="4"/></g></svg>